<?xml version="1.0" encoding="utf-8"?>
<!-- Generator: Adobe Illustrator 19.1.0, SVG Export Plug-In . SVG Version: 6.00 Build 0)  -->
<svg version="1.1" xmlns="http://www.w3.org/2000/svg" xmlns:xlink="http://www.w3.org/1999/xlink" x="0px" y="0px"
	 viewBox="0 0 854 792" style="enable-background:new 0 0 854 792;" xml:space="preserve">
<style type="text/css">
	.st0{fill:#BDEFEF;stroke:#231F20;stroke-width:5;stroke-miterlimit:10;}
	.st1{fill:#FFFFFF;}
	.st2{fill:#231F20;stroke:#231F20;stroke-miterlimit:10;}
	.st3{fill:#FFFFFF;stroke:#231F20;stroke-miterlimit:10;}
	.st4{fill:#231F20;stroke:#080808;stroke-miterlimit:10;}
	.st5{fill:none;stroke:#080808;stroke-miterlimit:10;}
	.st6{fill:#231F20;}
	.st7{fill:#884924;stroke:#231F20;stroke-linejoin:round;stroke-miterlimit:10;}
	.st8{fill:#DBDFC2;stroke:#080808;stroke-miterlimit:10;}
	.st9{fill:none;}
	.st10{fill:#884924;}
	.st11{fill:#D0C8CA;}
	.st12{fill:#FFFFFF;stroke:#231F20;stroke-linejoin:round;stroke-miterlimit:10;}
	.st13{fill:#C9E2EF;}
	.st14{fill:#231F20;stroke:#231F20;stroke-linejoin:round;stroke-miterlimit:10;}
	.st15{fill:none;stroke:#FFFFFF;stroke-linejoin:round;stroke-miterlimit:10;}
	.st16{fill:none;stroke:#FFFFFF;stroke-width:0.5;stroke-linejoin:round;stroke-miterlimit:10;}
	.st17{fill:none;stroke:#231F20;stroke-miterlimit:10;}
	.st18{fill:#1F1E1E;}
	.st19{fill:#1F1E1E;stroke:#1F1E1E;stroke-miterlimit:10;}
	.st20{fill:none;stroke:#D0C8CA;stroke-width:0.5;stroke-linejoin:round;stroke-miterlimit:10;}
	.st21{fill:#3B1500;}
	.st22{fill:none;stroke:#231F20;stroke-width:0.25;stroke-miterlimit:10;}
	.st23{fill:none;stroke:#080808;stroke-linejoin:round;stroke-miterlimit:10;}
	.st24{fill:none;stroke:#231F20;stroke-linejoin:round;stroke-miterlimit:10;}
	.st25{fill:none;stroke:#231F20;stroke-width:5;stroke-miterlimit:10;}
	.st26{fill:none;stroke:#231F20;stroke-width:0.25;stroke-linejoin:round;stroke-miterlimit:10;}
	.st27{fill:#FFFFFF;stroke:#FFFFFF;stroke-width:0.25;stroke-linejoin:round;stroke-miterlimit:10;}
	.st28{fill:#BA2C65;}
	.st29{fill:none;stroke:#FFFFFF;stroke-width:3;stroke-linejoin:round;stroke-miterlimit:10;}
	.st30{fill:#FFFFFF;stroke:#FFFFFF;stroke-width:0.5;stroke-linejoin:bevel;stroke-miterlimit:10;}
	.st31{fill:none;stroke:#231F20;stroke-linecap:square;stroke-linejoin:bevel;stroke-miterlimit:10;}
	.st32{fill:#1F1E1E;stroke:#1F1E1E;stroke-linejoin:round;stroke-miterlimit:10;}
	.st33{font-family:'Avenir-Light';}
	.st34{font-size:30px;}
	.st35{font-size:50px;}
	.st36{fill:none;stroke:#D0C8CA;stroke-width:0.5;stroke-miterlimit:10;}
</style>
<g id="Layer_1">
	<polygon class="st0" points="778.7,477.1 391.2,477.1 60.3,477.1 60.3,51.1 778.7,51.1 	"/>
	<ellipse class="st1" cx="557" cy="305.3" rx="5.9" ry="5.1"/>
	<g>
		<polygon class="st2" points="284.4,443.8 285.4,438.7 258.2,422.2 230.6,438.3 230.6,443.6 234.9,441 258.2,426.7 		"/>
		<polygon class="st2" points="234.9,476.6 280.7,476.6 280.7,441.9 258.2,426.7 234.9,441 		"/>
		<polygon class="st3" points="266.3,460 244.5,460 244.5,448.9 254.3,448.9 266.3,448.9 		"/>
		<line class="st3" x1="255.8" y1="460" x2="255.8" y2="448.9"/>
		<line class="st3" x1="244.5" y1="454.5" x2="266.3" y2="454.5"/>
	</g>
	<rect x="552.3" y="444.7" class="st4" width="17.9" height="7.9"/>
	<path class="st2" d="M569.3,432l9.1,1.1l-25.1,16.6l-0.6-5.3C552.8,444.3,570.1,441,569.3,432z"/>
	<path class="st5" d="M611.6,435.6c0,0,6.5-1,9.7,0.5"/>
	<path class="st5" d="M626.4,440.2c0,0,8.9-1.9,12.5,1"/>
	<g>
		<path class="st6" d="M778,460.9c2.1-8.2-1.1-17.8-1.1-17.8c4.8-2.7-2.7-10.1-2.7-10.1c-5-16-13.5-6.3-13.5-6.3s-7.7,3.8-5.8,7.5
			c0,0-9.5,3.9-3.8,12.8c0,0-5.4,2.8-1.9,10.7c0,0-7.9,4.9-3.2,9.9c0,0-4.6,3.8-1,9.1l33.7,0.5"/>
		<g>
			<rect x="726.1" y="395.2" class="st2" width="26.4" height="2.8"/>
			<rect x="726.1" y="402.6" class="st2" width="19.6" height="1.2"/>
			<path class="st2" d="M732.1,388.6c0,0,4-3.9,5.8,0v90h-5.8V388.6z"/>
			<rect x="737.9" y="410.5" class="st2" width="7.8" height="16.9"/>
		</g>
	</g>
	<path class="st7" d="M620.3,748.3c0,0,15,14.5,14.4,16.6c0,0-5.7,47.9-27.6,43.2c0,0-15.6-1.6-12-10.4c0,0,3.2-8.2,17.1-5.4"/>
	<path class="st8" d="M285,17.2"/>
	<path class="st5" d="M533.6,306.8"/>
	<path class="st9" d="M445.2,336.4"/>
	<g>
		<path class="st2" d="M511.1,386.6c0,0,4-3.9,5.8,0v90h-5.8V386.6z"/>
		<rect x="505.1" y="393.2" class="st2" width="26.4" height="2.8"/>
		<rect x="505.1" y="400.6" class="st2" width="19.6" height="1.2"/>
	</g>
	<path class="st10" d="M762.9,490.6c0,3.1-2.5,5.6-5.6,5.6l0,0c-3.1,0-5.6-2.5-5.6-5.6v-69.9c0-3.1,2.5-5.6,5.6-5.6l0,0
		c3.1,0,5.6,2.5,5.6,5.6V490.6z"/>
	<path class="st10" d="M652.7,583.4c0,5.3,4.3,9.6,9.6,9.6H740c5.3,0,9.6-4.3,9.6-9.6l0,0c0-5.3-4.3-9.6-9.6-9.6h-77.7
		C657,573.7,652.7,578.1,652.7,583.4L652.7,583.4z"/>
	<path class="st11" d="M761.9,421.7v164c0,0,0.2,5.2-15.2,4.2h-98.8c0,0-11.9,6.3-0.4,8.3h117.4c0,0,3.9,1,3.9-12.5v-164
		C768.7,421.7,763.9,415.6,761.9,421.7z"/>
	<path class="st11" d="M760.3,795.2c0,3.2-2.4,5.8-5.3,5.8l0,0c-2.9,0-5.3-2.6-5.3-5.8v-196c0-3.2,2.4-5.8,5.3-5.8l0,0
		c2.9,0,5.3,2.6,5.3,5.8V795.2z"/>
	<path class="st11" d="M657.3,794.1c0,3.2-2.4,5.8-5.3,5.8l0,0c-2.9,0-5.3-2.6-5.3-5.8v-196c0-3.2,2.4-5.8,5.3-5.8l0,0
		c2.9,0,5.3,2.6,5.3,5.8V794.1z"/>
	<path class="st12" d="M577.9,589c0,0,35,170.7,28.7,185.3l16.1-13c0,0-4.1-20.3-4.6-27.1c0,0,1.2-64.5-10.7-118.2l0.2-6.3
		L577.9,589z"/>
	<path class="st12" d="M505,744.6l11.8,14.1l19.5-13c0,0-4.7-15.1,1-26c0,0,34.4-98.3,31.3-129.6l9.3-9.9l-20.8-19.7
		c0,0-12,6.7-12.5,29.6c0,0-14.1,136.4-37.5,154.6H505z"/>
	<rect x="469" y="551.2" class="st11" width="24.9" height="234.9"/>
	<circle class="st13" cx="481.4" cy="686.5" r="4.8"/>
	<circle class="st13" cx="481.4" cy="636.5" r="4.8"/>
	<circle class="st13" cx="481.4" cy="586.5" r="4.8"/>
	<circle class="st13" cx="481.4" cy="736.5" r="4.8"/>
	<path class="st14" d="M585.9,633c0,0,27,126.7,20.7,141.3l16.1-13c0,0-4.1-20.3-4.6-27.1c0,0-2.3-86.4-6.8-97.7
		C611.3,636.5,600.1,641.8,585.9,633z"/>
	<path class="st14" d="M540.2,621.7c0,0-17.3,114.8-33.8,125.6l29.9-0.3c0,0-3.7-13.4,1-27.4c0,0,22.8-71.8,26.3-89.8
		C563.7,629.8,547.2,631.3,540.2,621.7z"/>
	<path class="st1" d="M565.4,360.9"/>
	<path class="st1" d="M565.2,359.6"/>
	<path class="st15" d="M590.4,569.7"/>
	<path class="st16" d="M654.6,598.1"/>
	<polygon class="st2" points="557,446.6 557,478.1 593.7,478.1 593.7,446.1 575.3,433 	"/>
	<polygon class="st2" points="601.2,431.4 582.2,450.8 676.6,450.8 663.3,431.4 	"/>
	<rect x="587.8" y="450.8" class="st2" width="81.7" height="25.6"/>
	<rect x="643.9" y="454.2" class="st3" width="16.3" height="4.2"/>
	<rect x="598.2" y="454.2" class="st3" width="26.8" height="4.2"/>
	<rect x="522.6" y="447" class="st2" width="44.6" height="31.1"/>
	<polyline class="st2" points="578,432 533.3,432 520.3,446.9 551.5,446.9 	"/>
	<polygon class="st2" points="564.5,448 578,432 599.1,447.7 596.9,449.8 578,435.3 568.6,447.3 	"/>
	<polygon class="st3" points="588.8,468 572.2,468 572.2,458.4 579.3,458.4 588.8,458.4 	"/>
	<line class="st17" x1="572.2" y1="463.2" x2="588.8" y2="463.2"/>
	<line class="st17" x1="579.3" y1="458.4" x2="579.3" y2="468"/>
	<path class="st18" d="M603.3,550.1l-35.4,29.9c-3.3-3.1-8-31.9-8-31.9l38.3-7.5"/>
	<polyline class="st19" points="598.2,548.1 566.1,576.4 572.2,590 591,569 	"/>
	<polyline class="st19" points="618.1,576.4 593.7,606.6 625,628 630.8,599.9 	"/>
	<polyline class="st19" points="629.2,594.5 618.8,622.7 656.3,622.7 658.9,586.7 	"/>
	<path class="st20" d="M658.1,598.3c0,0-4.5,1.7-7.7,2.8"/>
	<polyline class="st19" points="618.1,545.1 572.2,580.1 593.7,613.9 613.9,593.1 	"/>
	<path class="st18" d="M840.8,346.6"/>
	<polygon class="st6" points="511.1,741.5 533.1,742.9 521.3,761 506.4,747.2 	"/>
	<path class="st10" d="M520.7,751.4c0,0,14.3-6.4,16.7-9.9c0,0,7,21.1-0.9,25.8c0,0-49.7,12-55.2,11.3c0,0-26.4-5.3-2.9-17.2
		c0,0,27.1-15.6,27.9-19.2S520.7,751.4,520.7,751.4z"/>
	<path class="st7" d="M512.6,732.5l8.6,14.3c0,0-1.3,9.9-13.6,9.2l-6.7-8.8C501,747.2,513,734.4,512.6,732.5z"/>
	<path class="st7" d="M603.3,767.5c0,0,14.7-2.4,14.8-2.5s0.1-0.1,0.1-0.1s4.1,31.2-15,27.1C603.3,792,609.8,774.8,603.3,767.5z"/>
	<path class="st1" d="M739.6,554.9l-0.7-3c0,0,2.7-4.7,11.1-3.7l-2.2,4.2L739.6,554.9z"/>
	<rect x="634.7" y="275.8" class="st1" width="37.4" height="54.7"/>
	<path class="st5" d="M630.8,289.4c0,0,15.1,19.6,23.4,19.8"/>
	<path class="st3" d="M650.4,335.3c0,0,12.1,15.3,13.3,15.5h-1.9c0,0-9.5,49-7.6,51.8l33.5-56.3c0,0-24.4-27.5-19.4-33.7"/>
	<path class="st3" d="M622.2,280.3c0,0-9.9,16.2,1,30.8c0,0,6.5,4,0,8.1c0,0-2.2,2,0.2,3.6c0,0,4.6,3.2,3,6.3c0,0,1.7,2,2.2,2
		c0.5,0,0.5,0,0.5,0s-0.9,2.8,1.6,2.6c0,0,1.6,5.7,1.9,6.9c0,0,2.8,8.3,14.7-1.9c0,0,10.3-10.1,8.7-14.7"/>
	<path class="st3" d="M656.2,304.6c0,0,5.2-5.4,7.1,3.2c0,0,2.6,6.9-5.6,14.6"/>
	<path class="st17" d="M656.2,309.1c0,0,8.1-7.5,1.5,11.5"/>
	<g>
		<path class="st6" d="M622.7,301.9c0,0,0.3-0.3,0.9-0.6c0.3-0.1,0.7-0.2,1.1-0.3c0.4-0.1,0.8,0,1.3,0.1c0.4,0.1,0.8,0.2,1.2,0.4
			c0.4,0.2,0.7,0.4,0.9,0.6c0.5,0.4,0.7,0.8,0.7,0.8s-0.1,0-0.3-0.1c-0.2,0-0.4-0.1-0.7-0.2c-0.3-0.1-0.6-0.2-0.9-0.3
			c-0.3-0.1-0.7-0.2-1.1-0.2c-0.7-0.1-1.4-0.2-2-0.2C623.1,301.9,622.7,301.9,622.7,301.9z"/>
	</g>
	<g>
		<path class="st6" d="M625.7,307.7c0,0,0.3-0.4,1.1-0.7c0.4-0.1,0.8-0.2,1.3-0.2c0.2,0,0.5,0,0.7,0c0.2,0,0.5,0.1,0.7,0.2
			c0.5,0.1,0.9,0.3,1.3,0.6c0.4,0.2,0.7,0.5,1,0.7c0.3,0.2,0.5,0.5,0.6,0.6c0.1,0.2,0.2,0.3,0.2,0.3s-0.5-0.1-1.1-0.4
			c-0.3-0.1-0.7-0.3-1.1-0.4c-0.2-0.1-0.4-0.1-0.6-0.2c-0.2-0.1-0.4-0.1-0.6-0.2c-0.4-0.1-0.8-0.2-1.2-0.3c-0.2,0-0.4-0.1-0.6-0.1
			c-0.2,0-0.4,0-0.5,0C626.1,307.5,625.7,307.7,625.7,307.7z"/>
	</g>
	<g>
		<path class="st6" d="M625.7,309.1c0,0-0.1-0.3,0.2-0.7c0.1-0.2,0.3-0.4,0.6-0.5c0.2-0.1,0.5-0.2,0.8-0.3c0.3-0.1,0.5-0.1,0.8-0.1
			c0.3,0,0.5,0,0.7,0.1c0.4,0.1,0.7,0.3,0.7,0.3s-0.3,0.2-0.6,0.3c-0.4,0.2-0.8,0.3-1.3,0.4c-0.5,0.1-0.9,0.2-1.2,0.3
			C625.9,308.9,625.6,309.1,625.7,309.1z"/>
	</g>
	
		<ellipse transform="matrix(0.9533 -0.3021 0.3021 0.9533 -64.2113 204.4456)" class="st2" cx="628.8" cy="309.8" rx="0.9" ry="2.2"/>
	<path class="st21" d="M627.5,270.5c0,0-16.5,11.3,5.1,26.8c0,0,15.3,11.8,19.4,11.8h2.1l0.6-12.9c0,0,25,18.4-0.6,46.4
		c0,0,18-8.4,22.5-18.7c4.5-10.3-3.9,19.9-9.1,23.2c0,0,19.2-10.7,21.7-20c0,0-5.4,22.8-12.6,26.5c0,0,24-14.4,21.2-39.5
		c0,0,11.9-35.5,0.2-48.4c0,0-7.2-9.2-13-5.1C685,260.6,671.3,233.8,627.5,270.5z"/>
	<g>
		<path class="st6" d="M637.1,286.6c0,0,0.5,1.3,1.3,3.3c0.4,1,0.8,2.1,1.3,3.3c0.5,1.2,1,2.5,1.5,3.8c0.3,0.6,0.5,1.3,0.8,1.9
			c0.3,0.6,0.5,1.2,0.8,1.8c0.3,0.6,0.5,1.2,0.8,1.7c0.3,0.5,0.5,1,0.8,1.5c0.3,0.5,0.5,0.9,0.7,1.2c0.2,0.3,0.4,0.7,0.6,0.9
			c0.4,0.5,0.6,0.7,0.6,0.7s-0.3-0.2-0.8-0.6c-0.3-0.2-0.5-0.5-0.8-0.8c-0.1-0.2-0.3-0.3-0.5-0.5c-0.1-0.2-0.3-0.4-0.5-0.6
			c-0.3-0.4-0.7-0.9-1-1.4c-0.3-0.5-0.7-1.1-1-1.7c-0.6-1.2-1.2-2.5-1.8-3.8c-0.5-1.3-1-2.6-1.4-3.9c-0.4-1.3-0.7-2.4-1-3.5
			c-0.3-1-0.4-1.9-0.6-2.5C637.2,287,637.1,286.6,637.1,286.6z"/>
	</g>
	<g>
		<path class="st6" d="M641.8,286.6c0,0,0.3,0.5,0.8,1.3c0.5,0.8,1.2,2,2,3.5c0.8,1.5,1.7,3.3,2.5,5.2c0.9,1.9,1.7,4,2.4,6.2
			c0.4,1.1,0.7,2.2,1,3.2c0.3,1.1,0.5,2.2,0.7,3.2c0.2,1,0.3,2.1,0.4,3c0.1,1,0.1,1.9,0.1,2.8c0,0.9-0.1,1.6-0.2,2.3
			c-0.1,0.7-0.3,1.3-0.5,1.7c-0.1,0.5-0.3,0.8-0.4,1.1c-0.1,0.2-0.2,0.4-0.2,0.4s0-0.1,0.1-0.4c0.1-0.3,0.2-0.6,0.3-1.1
			c0.1-0.5,0.2-1.1,0.3-1.7c0-0.7,0.1-1.4,0.1-2.3c0-0.8-0.1-1.7-0.2-2.7c-0.1-0.9-0.3-1.9-0.5-3c-0.5-2-1.1-4.2-1.8-6.3
			c-0.7-2.1-1.5-4.2-2.3-6.2c-0.8-1.9-1.5-3.8-2.2-5.3c-0.7-1.5-1.3-2.8-1.7-3.7C642,287.1,641.8,286.6,641.8,286.6z"/>
	</g>
	<g>
		<path class="st21" d="M646.4,286.6c0,0,7.4,27.8,2.6,37.4c0,0,12.5-22.3,11.2-29.8"/>
		<path class="st6" d="M646.4,286.6c0.9,3,1.7,6.1,2.3,9.2c0.7,3.1,1.2,6.2,1.7,9.4c0.4,3.1,0.7,6.3,0.7,9.5c0,0.8,0,1.6-0.1,2.4
			c-0.1,0.8-0.1,1.6-0.2,2.4c-0.1,0.8-0.3,1.6-0.5,2.4c-0.2,0.8-0.5,1.6-0.9,2.3l-0.9-0.5c1.3-2.3,2.5-4.7,3.7-7.1
			c1.2-2.4,2.3-4.8,3.5-7.2c1.1-2.4,2.1-4.9,3-7.4c0.2-0.6,0.4-1.3,0.6-1.9c0.2-0.6,0.4-1.3,0.5-1.9c0.1-0.7,0.3-1.3,0.3-2
			c0.1-0.7,0.1-1.3,0-2c0.1,0.7,0.2,1.3,0.1,2c0,0.7-0.1,1.3-0.2,2c-0.1,0.7-0.2,1.3-0.4,2c-0.2,0.7-0.3,1.3-0.5,2
			c-0.8,2.6-1.7,5.1-2.7,7.6c-1,2.5-2.1,4.9-3.3,7.3c-1.2,2.4-2.4,4.8-3.7,7.2l-0.9-0.5c0.3-0.7,0.6-1.4,0.8-2.1
			c0.2-0.7,0.3-1.5,0.5-2.3c0.1-0.8,0.2-1.5,0.2-2.3c0-0.8,0.1-1.6,0.1-2.3c0-3.1-0.2-6.3-0.6-9.4c-0.3-3.1-0.8-6.3-1.4-9.4
			C647.8,292.8,647.1,289.7,646.4,286.6z"/>
	</g>
	<path class="st22" d="M674.1,402.6c0,0,2.5,18.2,2.5,19.1c0,0,39.1-5.5,43.6-13.7l-11.4-18.7L674.1,402.6z"/>
	<polygon class="st6" points="653.1,402.1 655.2,402.1 652.4,409.4 	"/>
	<path class="st1" d="M629.7,398"/>
	<path class="st23" d="M609.2,402"/>
	<path class="st12" d="M623.5,534.2c-0.3-0.7,24-125.8,24-125.8l18.9,6.2l-14.3,56.2l-15.3,69.4L623.5,534.2z"/>
	<path class="st24" d="M567.1,382.9"/>
	<path class="st24" d="M620.6,410.9"/>
	<line class="st25" x1="346.6" y1="477.1" x2="511.1" y2="477.1"/>
	<polygon class="st14" points="643.9,396.8 668.9,400.2 662.4,410.3 643.9,413 	"/>
	<polygon class="st1" points="643.4,407.5 664.6,407 666.2,404.6 643.4,404.7 	"/>
	<polygon class="st26" points="643.4,396.3 669,399.8 662.2,410.9 643.4,412.7 	"/>
	<path class="st1" d="M665.4,470c-8.6,5.2-15,24.5-15,24.5c41.1,26,77.9,14.9,77.9,14.9c-5.9-3.3-5.6-53.6-5.6-53.6
		c5.9-58.8,0-63.9,0-63.9c-13.4-31.6-29-42.4-29-42.4l-37.5,53.7l-2-0.6l2-49l-5.8,7.8l-1-1.3c0,0,0,32.5-3.5,36.4l8.8,1.5l2.6,3.5
		l4.5-6.5l-8.7,10c0,0-5.5,14.5,7.4,30.2c0,0,1.7,36.1,2,41.3"/>
	<path class="st17" d="M699.4,364.4c0,0-39.2-8-19.8,50.2"/>
	<line class="st17" x1="703.2" y1="382.1" x2="712" y2="398"/>
	<path class="st2" d="M661.7,350.8l-7.6,51.8c0,0-7.7-25.6-4.8-42.5C649.4,360.1,662.4,346.3,661.7,350.8z"/>
	<path class="st14" d="M652.1,411.2c0,0,28.7-44.7,31.9-44.7c0,0,16.7-12.4,28,15.6c0,0,2.4,9.1,2.4,10.7l5.8-6.5
		c0,0-12.8-39.2-31.6-43.5c0,0-8.4-5.3-18.4,16L652.1,411.2z"/>
	<path class="st27" d="M652.9,410c0,0,22.5-56.1,39.4-54c0,0,9.8-1,24.4,27l1.7-1.5l0.9,2.3l-2.6,3.1c0,0-12.3-30.5-25-27.5
		C691.8,359.5,677.3,360.5,652.9,410z"/>
	<path class="st28" d="M652.8,410.9c0,0-4.3,1.1-4.1,16.5c0,0-2.7,11.4-7,14.7c0,0-2.5,4.9,1.8,12.9l0.6,5.2c0,0,14-7.7,17.2-15
		c0,0-1.8-8.2,0-12.7C661.3,432.5,650.6,427.3,652.8,410.9z"/>
	<polygon class="st6" points="658.2,367.6 667.5,371.3 653.8,405.5 	"/>
	<path class="st3" d="M739.3,554.3c-2.6-14-25.6-82.4-25.6-82.4c-1.2-6.3-10.5-58.8-10.5-58.8l-21.6,6.6c0,0,42.9,137,54.2,143.2
		c0,0,11.9,3.4,31.7-8.7c0,0,0.4-4.5,0.1-6.1l-5.1-8.5"/>
	<path class="st19" d="M674.1,402.6c0,0,2.5,18.2,2.5,19.1c0,0,39.1-5.5,43.6-13.7l-11.4-18.7L674.1,402.6z"/>
	<path class="st29" d="M674.6,413c0,0,40.1-10.3,41.7-14"/>
	<path class="st30" d="M653.4,402c-0.7-2.6-1.3-44.5-1.3-44.5l1.3-1.4V402z"/>
	<path class="st19" d="M655.7,598.1c0,0,86.6-28.6,70.6-88.8c0,0-34.1,10.2-75.3-13.3"/>
	<path class="st31" d="M738.9,552.6c0,0-0.8-7,19.7-3.9l3.1-0.8l1.2-1.2l-1-3.8c0,0-3.4-9.8,2-1.2l0.8,3.5c0,0,1.2,2.7-2.2,4.3
		l-2.2,1.4"/>
	<line class="st5" x1="762.9" y1="553.6" x2="767.7" y2="548.1"/>
	<path class="st32" d="M650.4,494.6c0,7.7-100.4,61-100.4,61l10.8,13c0,0,0.7-2.5,23.2-20"/>
	<path class="st19" d="M668.2,504l-4.3,86.4l-30.6,13.7L585,560.8l1.6-22.2l64.5-42C651.1,496.6,650.5,494.9,668.2,504z"/>
	<path class="st11" d="M580,542.8c0,6.3-5.4,11.5-12,11.5H394.8c-6.6,0-12-5.1-12-11.5v-38.3c0-6.3,5.4-11.5,12-11.5H568
		c6.6,0,12,5.1,12,11.5V542.8z"/>
	<path class="st10" d="M598.9,494.9c0,4.6-3.8,8.4-8.4,8.4H372.8c-4.6,0-8.4-3.8-8.4-8.4l0,0c0-4.6,3.8-8.4,8.4-8.4h217.7
		C595.1,486.5,598.9,490.2,598.9,494.9L598.9,494.9z"/>
	<ellipse class="st1" cx="634.7" cy="242.5" rx="14.7" ry="9.7"/>
	<ellipse class="st1" cx="612" cy="216.7" rx="21.5" ry="12.7"/>
	<ellipse class="st1" cx="321.4" cy="235.9" rx="223.5" ry="106.4"/>
	<ellipse class="st1" cx="321.4" cy="152" rx="197.2" ry="82.7"/>
	<g>
		<path class="st1" d="M630.2,313c-0.1,0.4,0.8,0.6,2.1-1.4"/>
		<path class="st6" d="M630.2,313c0,0,0,0.1,0,0.1c0,0.1,0.1,0,0.2,0c0.2-0.1,0.5-0.3,0.7-0.5c0.3-0.2,0.5-0.5,0.7-0.7
			c0.2-0.2,0.4-0.3,0.4-0.3s0,0.2-0.1,0.5c-0.1,0.3-0.3,0.6-0.6,0.9c-0.3,0.3-0.7,0.5-1,0.4c-0.1,0-0.2,0-0.2-0.1
			c-0.1-0.1-0.1-0.1-0.1-0.2C630.1,313.1,630.2,313.1,630.2,313z"/>
	</g>
	<rect x="170" y="205.9" class="st9" width="322.5" height="80.5"/>
	<text transform="matrix(1 0 0 1 169.9832 228.5896)"><tspan x="0" y="0" class="st33 st34">We can’t find</tspan><tspan x="0" y="36" class="st33 st34">what you’re looking for.</tspan></text>
	<rect x="170" y="120.3" class="st9" width="258.2" height="50.6"/>
	<text transform="matrix(1 0 0 1 169.9834 158.1267)" class="st33 st35">Apologies</text>
	<path class="st11" d="M591.1,793.3c0,6.6-5.4,12-12,12H383.2c-6.6,0-12-5.4-12-12v-1.9c0-6.6,5.4-12,12-12h195.9
		c6.6,0,12,5.4,12,12V793.3z"/>
</g>
<g id="Layer_2">
</g>
<g id="Layer_3">
	<line class="st36" x1="658.4" y1="599.2" x2="659.2" y2="589.2"/>
	<path class="st1" d="M725.4,542.9l-13.2-34.3l12-3.3c0,0,8.8,27.7,8.6,27"/>
</g>
</svg>
